REM DIRINDEX 1\2,1\3,1\4
REM DIRNAME cjc038,folder01,folder02,folder03
TITLE ""
FILE "DISC2Track22.mp3" MP3
  TRACK 01 AUDIO
    TITLE "0:"
    INDEX 01 00:00:00
  TRACK 02 AUDIO
    TITLE "4:cjc038_1544"
    INDEX 01 00:00:03
  TRACK 03 AUDIO
    TITLE "0:"
    INDEX 01 00:02:59
  TRACK 04 AUDIO
    TITLE "2:cjc038_1545"
    INDEX 01 00:04:23
  TRACK 05 AUDIO
    TITLE "0:"
    INDEX 01 00:05:56
  TRACK 06 AUDIO
    TITLE "2:cjc038_1546"
    INDEX 01 00:05:67
  TRACK 07 AUDIO
    TITLE "0:"
    INDEX 01 00:07:41
  TRACK 08 AUDIO
    TITLE "3:cjc038_1547"
    INDEX 01 00:07:58
  TRACK 09 AUDIO
    TITLE "0:"
    INDEX 01 00:09:00
  TRACK 10 AUDIO
    TITLE "3:cjc038_1548"
    INDEX 01 00:09:20
  TRACK 11 AUDIO
    TITLE "0:"
    INDEX 01 00:10:59
  TRACK 12 AUDIO
    TITLE "2:cjc038_1549"
    INDEX 01 00:11:42
  TRACK 13 AUDIO
    TITLE "0:"
    INDEX 01 00:12:73
  TRACK 14 AUDIO
    TITLE "2:cjc038_1550"
    INDEX 01 00:13:16
  TRACK 15 AUDIO
    TITLE "0:"
    INDEX 01 00:14:47
  TRACK 16 AUDIO
    TITLE "3:cjc038_1551"
    INDEX 01 00:14:56
  TRACK 17 AUDIO
    TITLE "0:"
    INDEX 01 00:16:02
  TRACK 18 AUDIO
    TITLE "3:cjc038_1552"
    INDEX 01 00:16:30
  TRACK 19 AUDIO
    TITLE "0:"
    INDEX 01 00:17:53
  TRACK 20 AUDIO
    TITLE "2:cjc038_1553"
    INDEX 01 00:18:33
  TRACK 21 AUDIO
    TITLE "0:"
    INDEX 01 00:21:15
  TRACK 22 AUDIO
    TITLE "2:cjc038_1554"
    INDEX 01 00:21:23
  TRACK 23 AUDIO
    TITLE "0:"
    INDEX 01 00:22:62
  TRACK 24 AUDIO
    TITLE "3:cjc038_1555"
    INDEX 01 00:22:70
  TRACK 25 AUDIO
    TITLE "0:"
    INDEX 01 00:25:45
  TRACK 26 AUDIO
    TITLE "3:cjc038_1556"
    INDEX 01 00:25:58
  TRACK 27 AUDIO
    TITLE "0:"
    INDEX 01 00:27:04
  TRACK 28 AUDIO
    TITLE "2:cjc038_1557"
    INDEX 01 00:27:67
  TRACK 29 AUDIO
    TITLE "0:"
    INDEX 01 00:29:62
  TRACK 30 AUDIO
    TITLE "2:cjc038_1558"
    INDEX 01 00:30:12
  TRACK 31 AUDIO
    TITLE "0:"
    INDEX 01 00:32:05
  TRACK 32 AUDIO
    TITLE "3:cjc038_1559"
    INDEX 01 00:32:13
  TRACK 33 AUDIO
    TITLE "0:"
    INDEX 01 00:34:00
  TRACK 34 AUDIO
    TITLE "3:cjc038_1560"
    INDEX 01 00:34:32
  TRACK 35 AUDIO
    TITLE "0:"
    INDEX 01 00:36:23
  TRACK 36 AUDIO
    TITLE "2:cjc038_1561"
    INDEX 01 00:37:65
  TRACK 37 AUDIO
    TITLE "0:"
    INDEX 01 00:39:35
  TRACK 38 AUDIO
    TITLE "2:cjc038_1562"
    INDEX 01 00:39:52
  TRACK 39 AUDIO
    TITLE "0:"
    INDEX 01 00:41:49
  TRACK 40 AUDIO
    TITLE "3:cjc038_1563"
    INDEX 01 00:41:57
  TRACK 41 AUDIO
    TITLE "0:"
    INDEX 01 00:43:17
  TRACK 42 AUDIO
    TITLE "3:cjc038_1564"
    INDEX 01 00:43:42
  TRACK 43 AUDIO
    TITLE "0:"
    INDEX 01 00:45:32
  TRACK 44 AUDIO
    TITLE "2:cjc038_1565"
    INDEX 01 00:46:11
  TRACK 45 AUDIO
    TITLE "0:"
    INDEX 01 00:47:44
  TRACK 46 AUDIO
    TITLE "2:cjc038_1566"
    INDEX 01 00:47:58
  TRACK 47 AUDIO
    TITLE "0:"
    INDEX 01 00:49:41
  TRACK 48 AUDIO
    TITLE "3:cjc038_1567"
    INDEX 01 00:49:49
  TRACK 49 AUDIO
    TITLE "0:"
    INDEX 01 00:50:68
  TRACK 50 AUDIO
    TITLE "3:cjc038_1568"
    INDEX 01 00:51:22
  TRACK 51 AUDIO
    TITLE "0:"
    INDEX 01 00:52:71
  TRACK 52 AUDIO
    TITLE "2:cjc038_1569"
    INDEX 01 00:53:49
  TRACK 53 AUDIO
    TITLE "0:"
    INDEX 01 00:55:12
  TRACK 54 AUDIO
    TITLE "2:cjc038_1570"
    INDEX 01 00:55:20
  TRACK 55 AUDIO
    TITLE "0:"
    INDEX 01 00:56:72
  TRACK 56 AUDIO
    TITLE "3:cjc038_1571"
    INDEX 01 00:57:03
  TRACK 57 AUDIO
    TITLE "0:"
    INDEX 01 00:58:26
  TRACK 58 AUDIO
    TITLE "3:cjc038_1572"
    INDEX 01 00:58:50
  TRACK 59 AUDIO
    TITLE "0:"
    INDEX 01 01:00:19
  TRACK 60 AUDIO
    TITLE "2:cjc038_1573"
    INDEX 01 01:00:72
  TRACK 61 AUDIO
    TITLE "0:"
    INDEX 01 01:02:69
  TRACK 62 AUDIO
    TITLE "2:cjc038_1574"
    INDEX 01 01:02:73
  TRACK 63 AUDIO
    TITLE "0:"
    INDEX 01 01:06:02
  TRACK 64 AUDIO
    TITLE "3:cjc038_1575"
    INDEX 01 01:06:16
  TRACK 65 AUDIO
    TITLE "0:"
    INDEX 01 01:07:72
  TRACK 66 AUDIO
    TITLE "3:cjc038_1576"
    INDEX 01 01:08:15
  TRACK 67 AUDIO
    TITLE "0:"
    INDEX 01 01:11:02
  TRACK 68 AUDIO
    TITLE "2:cjc038_1577"
    INDEX 01 01:12:60
  TRACK 69 AUDIO
    TITLE "0:"
    INDEX 01 01:15:05
  TRACK 70 AUDIO
    TITLE "3:cjc038_1578"
    INDEX 01 01:15:25
  TRACK 71 AUDIO
    TITLE "0:"
    INDEX 01 01:17:16
  TRACK 72 AUDIO
    TITLE "2:cjc038_1579"
    INDEX 01 01:18:06
  TRACK 73 AUDIO
    TITLE "0:"
    INDEX 01 01:19:68
  TRACK 74 AUDIO
    TITLE "3:cjc038_1580"
    INDEX 01 01:20:00
  TRACK 75 AUDIO
    TITLE "0:"
    INDEX 01 01:21:49
  TRACK 76 AUDIO
    TITLE "2:cjc038_1581"
    INDEX 01 01:23:26
  TRACK 77 AUDIO
    TITLE "0:"
    INDEX 01 01:25:11
  TRACK 78 AUDIO
    TITLE "2:cjc038_1582"
    INDEX 01 01:25:27
  TRACK 79 AUDIO
    TITLE "0:"
    INDEX 01 01:27:14
  TRACK 80 AUDIO
    TITLE "3:cjc038_1583"
    INDEX 01 01:27:28
  TRACK 81 AUDIO
    TITLE "0:"
    INDEX 01 01:28:61
  TRACK 82 AUDIO
    TITLE "3:cjc038_1584"
    INDEX 01 01:29:23
  TRACK 83 AUDIO
    TITLE "0:"
    INDEX 01 01:31:00
  TRACK 84 AUDIO
    TITLE "2:cjc038_1585"
    INDEX 01 01:31:55
  TRACK 85 AUDIO
    TITLE "0:"
    INDEX 01 01:33:33
  TRACK 86 AUDIO
    TITLE "2:cjc038_1586"
    INDEX 01 01:33:34
  TRACK 87 AUDIO
    TITLE "0:"
    INDEX 01 01:35:59
  TRACK 88 AUDIO
    TITLE "3:cjc038_1587"
    INDEX 01 01:35:65
  TRACK 89 AUDIO
    TITLE "0:"
    INDEX 01 01:37:32
  TRACK 90 AUDIO
    TITLE "3:cjc038_1588"
    INDEX 01 01:37:46
  TRACK 91 AUDIO
    TITLE "0:"
    INDEX 01 01:39:64
  TRACK 92 AUDIO
    TITLE "2:cjc038_1589"
    INDEX 01 01:41:26
  TRACK 93 AUDIO
    TITLE "0:"
    INDEX 01 01:43:09
  TRACK 94 AUDIO
    TITLE "2:cjc038_1590"
    INDEX 01 01:43:25
  TRACK 95 AUDIO
    TITLE "0:"
    INDEX 01 01:45:32
  TRACK 96 AUDIO
    TITLE "3:cjc038_1591"
    INDEX 01 01:45:38
  TRACK 97 AUDIO
    TITLE "0:"
    INDEX 01 01:46:72
  TRACK 98 AUDIO
    TITLE "3:cjc038_1592"
    INDEX 01 01:47:35
  TRACK 99 AUDIO
    TITLE "0:"
    INDEX 01 01:49:32
  TRACK 100 AUDIO
    TITLE "2:cjc038_1593"
    INDEX 01 01:50:11
  TRACK 101 AUDIO
    TITLE "0:"
    INDEX 01 01:51:62
  TRACK 102 AUDIO
    TITLE "2:cjc038_1594"
    INDEX 01 01:52:10
  TRACK 103 AUDIO
    TITLE "0:"
    INDEX 01 01:53:59
  TRACK 104 AUDIO
    TITLE "3:cjc038_1595"
    INDEX 01 01:53:70
  TRACK 105 AUDIO
    TITLE "0:"
    INDEX 01 01:55:22
  TRACK 106 AUDIO
    TITLE "3:cjc038_1596"
    INDEX 01 01:55:63
  TRACK 107 AUDIO
    TITLE "0:"
    INDEX 01 01:57:29
  TRACK 108 AUDIO
    TITLE "2:cjc038_1597"
    INDEX 01 01:58:09
  TRACK 109 AUDIO
    TITLE "0:"
    INDEX 01 01:59:48
  TRACK 110 AUDIO
    TITLE "2:cjc038_1598"
    INDEX 01 01:59:53
  TRACK 111 AUDIO
    TITLE "0:"
    INDEX 01 02:01:17
  TRACK 112 AUDIO
    TITLE "3:cjc038_1599"
    INDEX 01 02:01:29
  TRACK 113 AUDIO
    TITLE "0:"
    INDEX 01 02:02:58
  TRACK 114 AUDIO
    TITLE "3:cjc038_1600"
    INDEX 01 02:02:66
  TRACK 115 AUDIO
    TITLE "0:"
    INDEX 01 02:04:21
  TRACK 116 AUDIO
    TITLE "2:cjc038_1601"
    INDEX 01 02:05:07
  TRACK 117 AUDIO
    TITLE "0:"
    INDEX 01 02:07:37
  TRACK 118 AUDIO
    TITLE "2:cjc038_1602"
    INDEX 01 02:07:39
  TRACK 119 AUDIO
    TITLE "0:"
    INDEX 01 02:09:26
  TRACK 120 AUDIO
    TITLE "3:cjc038_1603"
    INDEX 01 02:09:40
  TRACK 121 AUDIO
    TITLE "0:"
    INDEX 01 02:11:43
  TRACK 122 AUDIO
    TITLE "3:cjc038_1604"
    INDEX 01 02:11:66
  TRACK 123 AUDIO
    TITLE "0:"
    INDEX 01 02:13:44
  TRACK 124 AUDIO
    TITLE "2:cjc038_1605"
    INDEX 01 02:14:30
  TRACK 125 AUDIO
    TITLE "0:"
    INDEX 01 02:16:30
  TRACK 126 AUDIO
    TITLE "2:cjc038_1606"
    INDEX 01 02:16:44
  TRACK 127 AUDIO
    TITLE "0:"
    INDEX 01 02:18:55
  TRACK 128 AUDIO
    TITLE "3:cjc038_1607"
    INDEX 01 02:18:63
  TRACK 129 AUDIO
    TITLE "0:"
    INDEX 01 02:20:46
  TRACK 130 AUDIO
    TITLE "3:cjc038_1608"
    INDEX 01 02:21:02
  TRACK 131 AUDIO
    TITLE "0:"
    INDEX 01 02:23:05
  TRACK 132 AUDIO
    TITLE "2:cjc038_1609"
    INDEX 01 02:23:56
  TRACK 133 AUDIO
    TITLE "0:"
    INDEX 01 02:25:72
  TRACK 134 AUDIO
    TITLE "2:cjc038_1610"
    INDEX 01 02:26:03
  TRACK 135 AUDIO
    TITLE "0:"
    INDEX 01 02:27:50
  TRACK 136 AUDIO
    TITLE "3:cjc038_1611"
    INDEX 01 02:27:60
  TRACK 137 AUDIO
    TITLE "0:"
    INDEX 01 02:29:66
  TRACK 138 AUDIO
    TITLE "3:cjc038_1612"
    INDEX 01 02:30:01
  TRACK 139 AUDIO
    TITLE "0:"
    INDEX 01 02:31:40
